<?xml version="1.0" encoding="UTF-8" standalone="no"?>
<!-- Uploaded to: SVG Repo, www.svgrepo.com, Generator: SVG Repo Mixer Tools -->

<svg
   height="800px"
   width="800px"
   version="1.1"
   id="Capa_1"
   viewBox="0 0 32 32"
   xml:space="preserve"
   sodipodi:docname="yumex-system-software-update-dark.svg"
   inkscape:version="1.3.2 (091e20ef0f, 2023-11-25)"
   xmlns:inkscape="http://www.inkscape.org/namespaces/inkscape"
   xmlns:sodipodi="http://sodipodi.sourceforge.net/DTD/sodipodi-0.dtd"
   xmlns="http://www.w3.org/2000/svg"
   xmlns:svg="http://www.w3.org/2000/svg"><defs
   id="defs3" /><sodipodi:namedview
   id="namedview3"
   pagecolor="#ffffff"
   bordercolor="#000000"
   borderopacity="0.25"
   inkscape:showpageshadow="2"
   inkscape:pageopacity="0.0"
   inkscape:pagecheckerboard="0"
   inkscape:deskcolor="#d1d1d1"
   inkscape:zoom="2.3975"
   inkscape:cx="400"
   inkscape:cy="400"
   inkscape:window-width="3840"
   inkscape:window-height="2132"
   inkscape:window-x="0"
   inkscape:window-y="0"
   inkscape:window-maximized="1"
   inkscape:current-layer="Capa_1" />
<g
   id="g3">
	<g
   id="spin">
		<g
   id="g2">
			<path
   style="fill:#030104;"
   d="M25.883,6.086l-2.82,2.832C24.953,10.809,26,13.324,26,16c0,5.516-4.484,10-10,10v-2l-4,4l4,4v-2     c7.719,0,14-6.281,14-14C30,12.254,28.539,8.734,25.883,6.086z"
   id="path1" />
			<path
   style="fill:#030104;"
   d="M20,4l-4-4v2C8.281,2,2,8.281,2,16c0,3.746,1.461,7.266,4.117,9.914l2.82-2.832     C7.047,21.191,6,18.676,6,16c0-5.516,4.484-10,10-10v2L20,4z"
   id="path2" />
		</g>
	</g>
</g>
<path
   style="fill:#ffffff;stroke-width:0.417101"
   d="M 145.92533,640.18857 C 134.06939,627.47208 128.09112,620.36868 119.06328,608.27107 91.693239,571.59424 71.829227,529.75967 60.691781,485.33781 48.122129,435.20359 46.900142,381.1881 57.190091,330.55266 73.01981,252.65676 115.08791,182.44384 176.66304,131.14873 237.03811,80.853326 311.73018,52.613614 390.23067,50.402682 L 400,50.127533 V 25.272972 0.41841005 l 49.84359,49.84227795 49.84358,49.842282 -49.73931,49.7407 -49.73931,49.74069 -0.10758,-24.88294 -0.10759,-24.88295 -9.06864,0.25241 c -56.2471,1.56554 -112.04342,23.6129 -155.26259,61.35049 -40.40155,35.27733 -68.23543,82.02857 -79.88028,134.17115 -11.01584,49.326 -6.5968,102.35096 12.40755,148.88089 11.60168,28.40534 28.08473,54.04033 49.4806,76.95391 2.78409,2.98156 5.06199,5.51812 5.06199,5.63679 0,0.11866 -15.7195,16.04563 -34.93222,35.3932 l -34.93222,35.17743 z"
   id="path3"
   transform="scale(0.04)" /><path
   style="fill:#ffffff;stroke-width:0.417101"
   d="M 350.05214,749.63512 300.31282,699.89443 350.15641,650.05214 400,600.20984 v 24.92117 24.92113 l 5.52659,-0.002 c 6.21795,-0.002 14.38809,-0.53347 23.04484,-1.4994 79.4273,-8.86252 150.84454,-56.5663 190.08062,-126.96605 27.79964,-49.87981 37.5731,-107.61854 27.85283,-164.5464 -8.12644,-47.5935 -29.67376,-91.00834 -63.30472,-127.55021 -3.14799,-3.42047 -5.72362,-6.37913 -5.72362,-6.5748 0,-0.19567 15.66596,-16.15461 34.81325,-35.4643 l 34.81325,-35.10854 4.08659,4.33016 c 12.21682,12.94496 20.10223,22.21346 29.05639,34.15288 27.82521,37.10195 47.84566,79.05401 59.01834,123.67049 14.12542,56.40813 13.92934,116.63394 -0.56225,172.67988 -6.28935,24.32391 -14.30841,45.71962 -25.71607,68.61314 -46.87912,94.07971 -134.81477,162.97802 -236.86508,185.58565 -23.39916,5.18373 -50.37871,8.3522 -71.21674,8.36367 l -4.89765,0.003 -0.10756,24.81827 -0.10756,24.81823 z"
   id="path4"
   transform="scale(0.04)" /></svg>
